<?xml version="1.0" encoding="utf-8"?>
<!-- Generator: Adobe Illustrator 21.1.0, SVG Export Plug-In . SVG Version: 6.00 Build 0)  -->
<svg version="1.1" id="Layer_1" xmlns="http://www.w3.org/2000/svg" xmlns:xlink="http://www.w3.org/1999/xlink" x="0px" y="0px"
	 viewBox="0 0 100 100" style="enable-background:new 0 0 100 100;" xml:space="preserve">
<style type="text/css">
	.st0{fill:#056EAA;}
</style>
<path class="st0" d="M5,95c0.9,0,2.1,0,3,0c24.9,0,45-20.1,45-45S32.9,5,8,5C7.1,5,5.9,5,5,5 M33.5,65.1c0.9-3.9,1.2-7.8,1.5-12h12
	c-0.3,4.2-1.2,8.1-3,12H33.5z M5,53v12 M5,71L5,71v17.7 M21.8,78.8c-2.1,3.3-4.5,5.9-6.9,7.8c-1.2,0.9-2.7,1.5-4.2,2.1V71h14.7
	C24.4,73.7,23.3,76.4,21.8,78.8L21.8,78.8z M10.9,65.1V53h18c-0.3,4.2-0.6,8.1-1.5,12L10.9,65.1L10.9,65.1z M43.9,35
	c1.5,3.9,2.7,7.8,3,12h-12c-0.3-4.2-0.6-8.1-1.5-12H43.9z M28.9,47h-18V35h16.2C28.1,39,28.7,42.8,28.9,47z M10.9,29V11.3
	c1.5,0.3,2.7,1.2,4.2,2.1c2.4,1.8,4.8,4.5,6.9,7.8c1.5,2.4,2.7,4.8,3.6,7.8L10.9,29L10.9,29z M5,11.3V29 M5,35v12 M35.6,77.6
	c-3.3,3.3-6.9,5.7-10.7,7.5c3-3.9,5.4-8.7,7.2-14.1h9C39.4,73.4,37.7,75.5,35.6,77.6z M40.9,29h-9c-1.8-5.4-4.2-10.2-7.2-14.1
	c3.9,1.8,7.5,4.5,10.7,7.5C37.7,24.6,39.4,26.7,40.9,29z"/>
<polygon class="st0" points="58.8,53 82.1,53 82.1,62.9 94.8,50.1 94.7,50 94.8,49.9 82.1,37.2 82.1,47 58.8,47 "/>
</svg>
