<?xml version="1.0" encoding="utf-8"?>
<!-- Generator: Adobe Illustrator 21.1.0, SVG Export Plug-In . SVG Version: 6.00 Build 0)  -->
<svg version="1.1" id="Layer_1" xmlns="http://www.w3.org/2000/svg" xmlns:xlink="http://www.w3.org/1999/xlink" x="0px" y="0px"
	 viewBox="0 0 100 125" style="enable-background:new 0 0 100 125;" xml:space="preserve">
<style type="text/css">
	.st0{fill:#056EAA;}
</style>
<path class="st0" d="M15,92.5h70c4.1,0,7.5-3.4,7.5-7.5V15c0-4.1-3.4-7.5-7.5-7.5H15c-4.1,0-7.5,3.4-7.5,7.5v70
	C7.5,89.1,10.9,92.5,15,92.5z M15,15h70v15H15V15z M15,35h70v50H15V35z"/>
<rect x="55" y="20" class="st0" width="5" height="5"/>
<rect x="65" y="20" class="st0" width="5" height="5"/>
<rect x="75" y="20" class="st0" width="5" height="5"/>
<polygon class="st0" points="38.2,48.2 26.5,60 38.2,71.8 41.8,68.2 33.5,60 41.8,51.8 "/>
<polygon class="st0" points="58.2,51.8 66.5,60 58.2,68.2 61.8,71.8 73.5,60 61.8,48.2 "/>
<rect x="34.5" y="57.5" transform="matrix(0.2425 -0.9701 0.9701 0.2425 -20.3395 93.9596)" class="st0" width="30.9" height="5"/>
</svg>
