<?xml version="1.0" encoding="utf-8"?>
<!-- Generator: Adobe Illustrator 21.1.0, SVG Export Plug-In . SVG Version: 6.00 Build 0)  -->
<svg version="1.1" id="Layer_1" xmlns="http://www.w3.org/2000/svg" xmlns:xlink="http://www.w3.org/1999/xlink" x="0px" y="0px"
	 viewBox="0 0 100 125" style="enable-background:new 0 0 100 125;" xml:space="preserve">
<style type="text/css">
	.st0{fill:#056EAA;}
</style>
<path class="st0" d="M98,115.3c-0.3-11.9-5-23-25.5-28.9c-9.8-3-8.6-8.4-7.5-10.8c4.2-3,7.8-7,10.3-12c8.7-5.6,6.7-19.7,6.7-19.7
	h-3.3c-0.9-15.9-8-28.6-29.7-28.6S20.4,27.6,19.5,43.9h-3.3c0,0-2,13.7,6.7,19.5c3.1,6.1,7.8,11.1,13.7,14.1
	c0.2,0.6,0.2,1.4-0.2,2.3c-0.5,0.6-0.9,1.2-1.1,2c-1.4,1.7-4.2,3.3-9.4,4.4c-21.2,4.5-25.5,17-25.5,29.1c0,0.9,0,3.1,0,3.1h38
	l-0.6,3.1h22l-0.6-3.1h38.6C98,118.4,98,115.9,98,115.3z M55.8,83.7c-0.6,1.9-1.6,3.4-1.6,3.4C54,88.1,53.7,89,53.7,90h-9.4
	c0-0.9-0.3-1.9-0.6-2.8c0,0-0.9-1.9-1.9-3.4c2.2,0.5,8.7,0.5,13.4,0C55.5,83.7,55.7,83.7,55.8,83.7z M30.2,43.3l0.9-8.7
	c0,0,8.1,4.1,18,4.1c9.7,0,17.3-4.4,17.3-4.4l1.9,8.7l0.6,0.9H53.8H29.8L30.2,43.3z M31.6,65.9L31.6,65.9
	c15.8,0,15.8-15.8,15.8-15.8h3.1c0,0,0,15.6,15.6,15.8c-4.4,5.2-10.5,8.4-17.2,8.4C42.1,74.3,35.9,71.1,31.6,65.9z M6.6,112
	c0.3-4.4,1.6-7.5,3.4-10.3c3.1-4.4,8.7-7.5,16.7-9.1c4.4-1.1,7.8-2.5,10.5-4.2l0.8,1.7c0,2.8,1.9,5.3,4.5,6.1l-2.8,15.9
	C24.6,112,10.9,112,6.6,112z M58.3,112l-3-15.9c2.7-0.8,4.5-3.1,4.5-6.1l1.4-2.7c1.9,2,5,3.9,9.7,5.3c8.1,2.2,13.7,5.6,17,9.7
	c1.9,2.5,3.1,5.9,3.4,9.7C86.9,112,73.3,112,58.3,112z"/>
</svg>
