<?xml version="1.0" encoding="utf-8"?>
<!-- Generator: Adobe Illustrator 21.1.0, SVG Export Plug-In . SVG Version: 6.00 Build 0)  -->
<svg version="1.1" id="Layer_1" xmlns="http://www.w3.org/2000/svg" xmlns:xlink="http://www.w3.org/1999/xlink" x="0px" y="0px"
	 viewBox="0 0 91 113.8" style="enable-background:new 0 0 91 113.8;" xml:space="preserve">
<style type="text/css">
	.st0{fill:#056EAA;stroke:#056EAA;stroke-width:1.2;stroke-miterlimit:10;}
</style>
<g>
	<g>
		<path class="st0" d="M2.2,91h86.1c0,0,0,0,0,0c1.2,0,2.1-0.9,2.1-2.1c0-0.7-0.3-1.3-0.9-1.7L3.7,1.3C3.1,0.7,2.2,0.5,1.4,0.8
			C0.6,1.1,0.1,1.9,0.1,2.8v86.1C0.1,90.1,1.1,91,2.2,91z M83.3,86.8H68.4v-4.6c0-1.2-0.9-2.1-2.1-2.1s-2.1,0.9-2.1,2.1v4.6H53.1
			v-7.2c0-1.2-0.9-2.1-2.1-2.1s-2.1,0.9-2.1,2.1v7.2H37.7v-4.6c0-1.2-0.9-2.1-2.1-2.1s-2.1,0.9-2.1,2.1v4.6H22.4v-7.2
			c0-1.2-0.9-2.1-2.1-2.1c-1.2,0-2.1,0.9-2.1,2.1v7.2H4.3V71.6h7.2c1.2,0,2.1-0.9,2.1-2.1s-0.9-2.1-2.1-2.1H4.3V56.3h4.6
			c1.2,0,2.1-0.9,2.1-2.1s-0.9-2.1-2.1-2.1H4.3V40.9h7.2c1.2,0,2.1-0.9,2.1-2.1c0-1.2-0.9-2.1-2.1-2.1H4.3V25.6h4.6
			c1.2,0,2.1-0.9,2.1-2.1s-0.9-2.1-2.1-2.1H4.3V7.8L83.3,86.8z"/>
		<path class="st0" d="M24.9,71h22c0,0,0,0,0,0c1.2,0,2.1-0.9,2.1-2.1c0-0.7-0.3-1.3-0.9-1.7L26.4,45.3c-0.6-0.6-1.5-0.8-2.3-0.5
			c-0.8,0.3-1.3,1.1-1.3,1.9v22C22.8,70,23.8,71,24.9,71z M27,51.9l14.9,14.9H27V51.9z"/>
		<path class="st0" d="M86.8,45.8C86.8,45.8,86.8,45.7,86.8,45.8c-0.1-0.2-0.1-0.3-0.2-0.4c0,0,0-0.1-0.1-0.1
			c-0.1-0.1-0.2-0.3-0.3-0.4c0,0,0,0,0,0c0,0,0,0,0,0L49.6,6.7c-0.1-0.1-0.2-0.3-0.3-0.4C49.2,6.2,49,6.1,48.9,6l-3.1-3.2
			c-1.7-1.7-3.9-2.7-6.3-2.7c-2.3,0-4.6,0.9-6.2,2.5l-2.8,2.7C27.1,8.9,27,14.5,30.4,18l40.4,42c0,0,0,0,0,0c0,0,0.1,0,0.1,0.1
			c0.1,0.1,0.2,0.2,0.3,0.2c0,0,0.1,0,0.1,0.1c0.1,0.1,0.2,0.1,0.4,0.1c0,0,0.1,0,0.1,0L88,64.8c0.2,0,0.4,0.1,0.5,0.1c0,0,0,0,0,0
			c1.1,0,2.1-0.9,2.1-2.1c0-0.3-0.1-0.6-0.2-0.8L86.8,45.8z M72.4,55.5L38.3,20.1l9.4-9.3l34.1,35.4l-4.5,4.5L72.4,55.5z M33.5,8.5
			l2.8-2.7c0.9-0.9,2-1.3,3.3-1.3c1.3,0,2.4,0.5,3.3,1.4l1.9,2l-9.4,9.3l-1.9-2C31.6,13.2,31.7,10.3,33.5,8.5z M76.4,57.4l1.3-1.3
			l5.8-5.7l2.2,9.5L76.4,57.4z"/>
		<path class="st0" d="M72.4,43.2L49.4,18.8c-0.8-0.8-2.1-0.9-3-0.1c-0.8,0.8-0.9,2.1-0.1,3l23.1,24.4c0.4,0.4,1,0.7,1.5,0.7
			c0.5,0,1-0.2,1.4-0.6C73.2,45.4,73.2,44,72.4,43.2z"/>
	</g>
</g>
</svg>
